<svg xmlns="http://www.w3.org/2000/svg" viewBox="0 0 64 64">
  <circle cx="32" cy="32" r="32" fill="#f7931a"/>
  <g transform="translate(14, 10) scale(0.36)">
    <path fill="#ffffff" d="M63.04 39.74c4.27-2.85 6.91-7.58 6.23-14.07-1.42-11.42-10.65-14.95-22.56-15.93V0h-9.29v9.46c-2.44 0-4.94.05-7.42.1V0h-9.29v9.74c-2.01.04-3.99.07-5.91.07v-.03H2.84l.01 10.08s6.87-.13 6.74-.01c3.78 0 5.01 2.19 5.36 4.08v17.42H15.5c.26 0 .66.03 1.13.15h-.58v24.41c-.36 1.27-1.47 3.27-4.45 3.27.13.12-6.74 0-6.74 0L3.47 79.4h11.59c2.16 0 4.28.05 6.35.09v9.86h9.29V79.7c2.54.06 5 .08 7.42.08v9.57h9.29v-9.81c15.63-.9 26.58-4.84 27.94-19.56.72-11.86-4.47-17.14-13.37-19.28zm-22.17-20.5c6.22 0 25.77-1.97 25.77 11.14 0 12.5-19.55 11.08-25.77 11.08V19.24zm0 52.84V51.71c7.47 0 30.98-2.14 30.98 10.17 0 11.88-23.51 10.2-30.98 10.2z"/>
  </g>
</svg>
